<svg width="60" height="60" viewBox="0 0 60 60"><path fill="currentColor" d="M30 12a18 18 0 0 0-18 18v.33c.03 2.16.45 4.23 1.19 6.14l.02.07.05.12.13.3.03.1.03.06.03.07.03.07.05.11a18 18 0 0 0 .27.6l.07.13.04.08.04.05.07.14.05.1.08.17.05.08.04.06.04.07.04.06.06.13.06.1.1.17.05.08.03.04.09.13.07.13.05.09.05.06.03.06.05.05.07.12.09.13.02.04.07.09.08.11.08.12.09.11.12.17.07.09.08.12.09.1a18 18 0 0 0 .43.54 4.5 4.5 0 0 1-2.93 4.02 9 9 0 0 0 6.51-.8 17.9 17.9 0 0 0 5.78 2.58l.02-.02a18.04 18.04 0 0 0 14.47-2.6 8.96 8.96 0 0 0 4.32 1.1 9 9 0 0 0 2.21-.28 4.5 4.5 0 0 1-2.93-4.06l.08-.08A18 18 0 0 0 30 12m2.68 8.3a2.9 2.9 0 0 1 2.05.84.77.77 0 0 1-1.07 1.1l-.01-.01a1.36 1.36 0 0 0-1.91-.03l-.02.03a.77.77 0 0 1-1.08-1.1 2.9 2.9 0 0 1 2.04-.84zm5.97 0a2.9 2.9 0 0 1 2.05.84.77.77 0 0 1-1.07 1.1l-.01-.01a1.36 1.36 0 0 0-1.91-.03l-.02.03a.77.77 0 0 1-1.08-1.1 2.9 2.9 0 0 1 2.04-.84zm-17.72 1.94h.47l.13.02h.19l.06.02h.1l.06.02h.05l.07.02h.1l.07.01.04.01.1.02h.04l.11.03.07.01.09.02.08.02.1.02h.03l.06.03.11.03.17.05.06.02.09.02.1.04.09.02.08.04.1.03.1.04.05.02.06.02.05.02.08.04.06.02.04.02.1.04.16.09.05.02.09.05.03.01.1.06.07.03.08.05.05.03.05.03.09.05.1.07.07.04.05.04.04.02.06.04.07.05.07.05.06.04.08.05.06.05.05.05.06.05.08.06.04.03.06.05.08.07.04.03.05.05.06.06.05.04.06.06.04.03.05.05.03.04.2.2.06.06.09.09.07.08.04.05.03.05.06.07.09.09.05.07.06.08.04.06.03.05.05.06.05.06.02.05.06.08.03.04.07.1.03.06.04.07.05.08.05.1.04.05.03.06.03.05.03.07.05.09.03.05.06.11.04.11.04.05v.03l.04.08.04.09.03.06.04.11.03.09.02.05.03.06.01.05.04.1.02.08.02.06.04.12.03.1.02.07.02.08.02.08.02.07.01.06.02.06.02.12.02.09.02.07.02.08v.07l.02.11.02.09v.07l.02.09v.14l.02.07v.11l.02.1v2.45a1.2 1.2 0 0 0 1.2 1.16h3.41a2.17 2.17 0 0 1 2.14 2.11v.11a2.17 2.17 0 0 1-2.1 2.13h-.1a1.2 1.2 0 0 0-.3.05H27.6a5.69 5.69 0 0 0-6.31 5.65l-.01.08a5.7 5.7 0 0 0 .15 1.24l-.13-.08a17 17 0 0 1-.77-.49 1.2 1.2 0 0 0-1.24-.06l-.06.04a7.7 7.7 0 0 1-2.72.85h-.05l.03-.04a5.67 5.67 0 0 0 .99-2.97 1.2 1.2 0 0 0-.28-.81l-.02-.03v-.02a16.73 16.73 0 0 1-3.99-10.66v-.39a7.8 7.8 0 0 1 .26-1.78l.02-.06.01-.04.04-.13v-.04l.02-.05.04-.12.04-.12.03-.06v-.02l.01-.04.05-.12.04-.1.05-.12.07-.17.03-.07.05-.11.05-.1.06-.1.07-.15.04-.06.06-.1.04-.07.04-.09.04-.06.09-.13.03-.07.05-.07.06-.09.06-.07.12-.17.05-.06.08-.1.07-.08.06-.08.06-.07.05-.05.07-.09.04-.04.03-.04.06-.06.08-.09.04-.02.03-.04.05-.05.03-.04.06-.04.03-.04.06-.05.05-.05.06-.05.05-.05.04-.03.06-.05.07-.06.09-.07.03-.02.05-.04.04-.04.07-.05.06-.04.06-.04.05-.04.04-.02.05-.05.04-.02.05-.04.09-.06.06-.04.05-.02.06-.04.04-.03.05-.03.05-.03.1-.05.08-.05.03-.01.07-.04.04-.02.05-.03.15-.08.09-.03.06-.03.04-.02.06-.03.09-.04.07-.02.05-.03.04-.02.07-.02.05-.02.05-.03h.03l.09-.03.06-.02.13-.05.08-.02.08-.03.1-.03.06-.01.06-.03.07-.01.06-.01.08-.02.08-.03h.04l.16-.04h.05l.07-.02h.04l.1-.02.15-.03.08-.01h.09l.07-.02h.04l.17-.02h.12l.12-.01.08-.01h.22zm13.26 1.53a.5.5 0 0 1 .34.11h-.01a1.62 1.62 0 0 0 2.3 0 .51.51 0 0 1 .72.72 2.64 2.64 0 0 1-3.74 0 .51.51 0 0 1 .4-.83m-11.8 3.19a1.96 1.96 0 0 0-1.38.57.51.51 0 0 0 .72.72l.02-.02a.94.94 0 0 1 1.31.02l.02.01a.51.51 0 0 0 .7-.73 1.96 1.96 0 0 0-1.39-.57m3.89.01a2.05 2.05 0 0 0-1.45.6.51.51 0 0 0 .72.72l.03-.01a1.02 1.02 0 0 1 1.42.01l.02.01a.51.51 0 0 0 .7-.73 2.05 2.05 0 0 0-1.44-.6m-3.37 2.48a1.2 1.2 0 0 0-.92 2 3.33 3.33 0 0 0 4.7 0 1.2 1.2 0 0 0-1.7-1.7l-.01.02a.94.94 0 0 1-1.3-.02l-.03-.02a1.2 1.2 0 0 0-.75-.29z"/></svg>