<svg width="32" heigth="32" viewBox="0 0 32 32"><path fill="currentColor" d="M16 0a16 16 0 0112.3 26.3 4 4 0 002.5 3.7 8 8 0 01-5.8-.8 16 16 0 01-12.9 2.3A16 16 0 017 29.2a8 8 0 01-5.8.8 4 4 0 002.6-3.6 16 16 0 01-.4-.5l-.1-.2-.2-.2v-.1l-.2-.1V25h-.1V25l-.1-.1v-.1h-.1v-.1h-.1v-.2l-.1-.1-.1-.1-.1-.2-.1-.2v-.1H2v-.1l-.1-.2-.1-.2-.1-.1v-.1l-.3-.6-.1-.2v-.1l-.2-.3v-.2A16 16 0 010 16.3V16A16 16 0 0116 0zM8 9.1H6.7v.1h-.4l-.1.1H6v.1h-.2l-.1.1h-.2v.1H5.1v.1H5v.1h-.2v.1h-.2v.1h-.1l-.1.1h-.1v.1h-.1l-.1.1H4v.1h-.1l-.1.1h-.1v.1h-.1v.1h-.1v.1h-.1l-.1.1v.1h-.1l-.2.2v.1h-.1v.1h-.1v.1h-.1v.1l-.1.1-.1.1-.1.2h-.1v.2h-.1l-.1.2v.1H2v.2h-.1v.2h-.1v.1l-.1.1v.1l-.1.2v.1l-.1.1v.1l-.1.2V14.3h-.1a7 7 0 00-.2 1.6v.4c0 3.6 1.3 6.9 3.5 9.5.2.2.3.5.3.7a5 5 0 01-.9 2.7c.9-.1 1.7-.4 2.4-.8a1 1 0 011.2 0l.7.5a5 5 0 010-1v-.1a5 5 0 015.6-5H19a2 2 0 002-2 2 2 0 00-2-2h-3a1 1 0 01-1-1V16 15.7v-.1l-.1-.1v-.7h-.1v-.4l-.1-.2V14l-.1-.1v-.2h-.1v-.2l-.1-.1v-.2h-.1V13l-.1-.2v-.1H14v-.1l-.1-.1v-.1l-.1-.1-.1-.2-.1-.1V12h-.1v-.1l-.1-.1-.1-.2h-.1v-.1h-.1l-.1-.2H13v-.1h-.1V11h-.1V11h-.1v-.1h-.1v-.1h-.1v-.1h-.1l-.1-.1h-.1v-.1H12v-.1H12l-.1-.1h-.1l-.1-.1h-.1V10h-.1l-.1-.1-.2-.1H11l-.1-.1h-.2v-.1h-.1l-.1-.1h-.2l-.1-.1H10l-.1-.1H9.6v-.1h-.4L9 9.1h-.7L8.3 9h-.1H8zm5 6.7c.5.4.5 1 0 1.5a3 3 0 01-4.1 0 1 1 0 011.5-1.5c.3.3.8.3 1.2 0a1 1 0 011.5 0zm1-2a.5.5 0 01-.6.7 1 1 0 00-1.3 0 .5.5 0 01-.7-.7c.7-.7 1.9-.7 2.6 0zm-3.5 0a.5.5 0 01-.6.7.8.8 0 00-1.2 0 .5.5 0 01-.7-.7c.7-.7 1.8-.7 2.5 0zM22 10.6c-.6.5-1.5.5-2 0a.5.5 0 00-.7.6c.9 1 2.4 1 3.3 0a.5.5 0 10-.6-.6zM16.6 8a.7.7 0 00.8 1h.1c.5-.5 1.2-.5 1.6-.1h.1v.1a.7.7 0 001-1c-1-1-2.6-1-3.6 0zm5.3 0a.7.7 0 00.9 1c.5-.5 1.2-.5 1.7-.1v.1a.7.7 0 001-1c-1-1-2.6-1-3.6 0z"/></svg>