<svg xmlns="http://www.w3.org/2000/svg" viewBox="0 0 36 36"><path d="M18 0c9.941 0 18 8.059 18 18 0 4.394-1.574 8.42-4.19 11.545l-.077.092a4.5 4.5 0 0 0 2.94 4.061 9 9 0 0 1-2.223.277 8.96 8.96 0 0 1-4.313-1.099A17.9 17.9 0 0 1 18 36C8.059 36 0 27.941 0 18S8.059 0 18 0"/><path fill="#f9603a" d="m4.994 9.977.051-.025.077-.037.049-.023.069-.032.048-.023.038-.016.037-.017.042-.018.058-.025.081-.035.048-.02.049-.019.039-.015.041-.017.064-.025.058-.022.037-.013.053-.02.04-.014.039-.014.04-.014.061-.02.076-.026.109-.035.04-.012.044-.014.064-.019.063-.018.065-.018.069-.02.078-.02.064-.016.083-.02q.053-.014.107-.026l.048-.011.042-.01.042-.008.047-.01.042-.009.065-.013.072-.013.05-.01.295-.048.039-.005.092-.013.052-.007.041-.005.041-.005.049-.005.047-.005.046-.005.043-.004.066-.006.077-.007.122-.008.046-.003.094-.006.043-.002.046-.002.046-.001.052-.002.044-.001.045-.001.046-.001.068-.001h.068q.123 0 .244.003l.051.002.07.002.075.004q.038 0 .074.003l.038.003.06.003.02.002a9 9 0 0 1 .32.028l.07.007.064.008.083.01.031.004.032.005.075.01.044.007.071.01.028.005.076.013.067.012.14.026.036.007.037.007.067.014.033.007.033.008.073.016.036.008.036.009.065.015.038.01.068.017.031.008.069.018.035.01.067.019.031.009.207.062.063.02.036.011.035.012.068.023.062.021.036.013.035.012.063.023.034.013.034.012.063.024.064.025.068.027.061.025.066.027.032.014.066.028.06.027.03.013.069.031.03.014.03.014.134.064.052.026.035.017.035.018.057.029.03.015.03.016.064.034.06.033.03.016.029.016.063.035.06.034.057.034.063.036.056.034.03.019.06.036.028.018.06.038.056.036.06.04.054.036.06.04.055.038.059.04.053.039.059.042.027.02.028.02.053.04.056.043.056.043.05.04q.03.022.058.045l.052.042.053.043.026.022.026.022.055.046.051.044.05.043.027.024.026.023.05.045.027.025.05.046.023.022.053.05.048.045.052.05.046.046.05.05.048.048.048.05.048.05.023.024.046.05.024.026.047.051.044.049.048.055.043.05.046.052.045.053.043.052.046.056.04.049.022.029.044.055.02.026.042.054.041.055.043.057.038.052.044.061.018.025.04.056.021.031.037.053.04.06.018.027.018.027.04.06.037.058.018.028.018.029.037.06.018.03.036.058.017.028.037.064.032.055.036.062.034.062.031.056.018.032.017.032.032.06.032.062.016.03.015.031.032.064.03.06.03.064.032.067.026.057.032.07.026.058.014.032.027.065.015.033.026.064.026.064.014.033.013.033.024.063.025.066.025.067.022.06.025.072.023.067.022.064.022.067.022.069.01.034.01.035.02.063.019.065.01.036.01.036.018.063.02.075.013.051.04.159.014.064.018.083.012.054.03.143.007.039.007.039.011.06.007.039.007.039.01.066.01.062.007.04.01.072.01.07.01.075.004.036.018.156.003.03.003.03.006.073.004.037.003.037a8 8 0 0 1 .019.29l.002.067q.007.15.008.3v1.964h3.372a3.37 3.37 0 0 1 3.371 3.316v.056a3.37 3.37 0 0 1-3.315 3.371h-.056v.045h-5.746a4.496 4.496 0 0 0-1.943 8.754l-.025.024a17.9 17.9 0 0 1-5.775-2.586 8.95 8.95 0 0 1-4.296 1.091c-.766 0-1.51-.095-2.22-.276a4.5 4.5 0 0 0 2.936-4.032 18 18 0 0 1-.436-.532l-.013-.016-.072-.092-.027-.036-.06-.077-.068-.09-.123-.166-.042-.057-.041-.057-.044-.06-.043-.06-.075-.107-.066-.096-.028-.04-.055-.08-.031-.046-.03-.045-.047-.07-.04-.062-.038-.057-.045-.068-.05-.078-.032-.05-.049-.078-.031-.051-.047-.076-.033-.053-.047-.078-.098-.166-.057-.096-.035-.06-.04-.07-.033-.06-.043-.076-.035-.062-.04-.073-.093-.172-.053-.102-.032-.06-.038-.074-.031-.062-.038-.074-.031-.063-.037-.073q-.145-.295-.28-.595l-.048-.11-.03-.068-.029-.068-.03-.069-.033-.08-.126-.309-.049-.124-.03-.078a17.9 17.9 0 0 1-1.18-6.131L0 18.033l.001-.149c.013-.81.134-1.594.348-2.339l.003-.01.028-.095-.031.105.066-.222.003-.007.002-.008q.049-.155.104-.306l.006-.016.033-.09.01-.027.033-.088.01-.025.036-.09.004-.011q.06-.147.124-.29l.012-.026q.017-.04.036-.079l.008-.018.008-.018.036-.076.018-.035.036-.075.017-.034q.064-.126.13-.25l.02-.037.038-.066.024-.043.038-.068.024-.04.038-.065.028-.047q.067-.112.138-.221l.027-.04.038-.059.033-.05.039-.056.029-.042.043-.062.027-.039q.076-.105.154-.209l.034-.045.04-.052.038-.047.042-.053.036-.045.042-.052.041-.049.04-.046.038-.046.055-.063.04-.046.047-.052.042-.047.022-.023.04-.044.05-.053.037-.039.052-.053.038-.039.043-.043.054-.054.045-.044.052-.05.047-.044.029-.027.035-.033.03-.026.028-.027.039-.035.032-.029.061-.053.046-.04.066-.056.05-.042.03-.025.04-.032.056-.046.048-.037.052-.042.046-.035.034-.026.05-.037.065-.049.067-.049.052-.037.055-.039.053-.037.053-.036.054-.036.035-.023.04-.026.034-.022.074-.048.052-.033.064-.04.055-.033.062-.036.055-.033.038-.022.113-.063.041-.023.039-.022.074-.04.057-.03.057-.029z"/><path fill="#fff" d="m11.673 17.738.02.019c.36.36.941.366 1.309.017l.018-.017a1.194 1.194 0 0 1 1.689 1.689 3.327 3.327 0 0 1-4.706 0 1.194 1.194 0 0 1 1.67-1.708m4.065-2.17a.512.512 0 0 1-.71.737l-.014-.014a1.024 1.024 0 0 0-1.429-.018l-.018.018a.512.512 0 1 1-.724-.723c.8-.8 2.096-.8 2.895 0m-3.942-.043a.512.512 0 0 1-.71.737l-.013-.013a.94.94 0 0 0-1.31-.017l-.018.017a.512.512 0 0 1-.723-.724 1.96 1.96 0 0 1 2.774 0m10.731-3.645c.633.634 1.66.634 2.292 0a.512.512 0 0 1 .724.725 2.645 2.645 0 0 1-3.74 0 .512.512 0 1 1 .724-.724m.211-2.74a.768.768 0 0 1-1.07 1.102l-.015-.016a1.365 1.365 0 0 0-1.912-.019l-.019.02a.768.768 0 1 1-1.085-1.086 2.9 2.9 0 0 1 4.101 0m5.972 0a.768.768 0 0 1-1.07 1.102l-.016-.016a1.365 1.365 0 0 0-1.91-.019l-.02.02a.768.768 0 1 1-1.086-1.086 2.9 2.9 0 0 1 4.102 0"/></svg>