<svg xmlns="http://www.w3.org/2000/svg" viewBox="0 0 117 26"><path fill="#f9603a" d="M14.36 15.31q0 2.67-1.4 5.05A11 11 0 0 1 9 24.23a10.7 10.7 0 0 1-5.5 1.47 4.3 4.3 0 0 1-2.6-.68q-.9-.66-.9-1.86 0-.89.58-1.5a1.9 1.9 0 0 1 1.5-.63q.84 0 1.52.47.67.48 1.05 1.03.38.58.83 1.06t.83.47q.48 0 .78-.5.3-.48.5-1.9.2-1.44.2-3.92V3.26q0-.3-.3-.35l-1.1-.17q-.2-.03-.2-.56 0-.52.2-.52l1.76.1a65 65 0 0 0 5.79 0l1.78-.1q.2 0 .2.52 0 .53-.2.56l-1.1.17q-.3.06-.3.35v5.6l.02 3.04zM17 13.78q0-3.13 2.17-4.92 2.18-1.8 5.73-1.8 3.33 0 5.36 1.75a6 6 0 0 1 2.04 4.77q0 3.14-2.2 4.95-2.15 1.77-5.7 1.78-3.33 0-5.36-1.76A6 6 0 0 1 17 13.78m5.49-4.14q0 2 .9 5.3.9 3.26 1.71 4.06.38.38.78.38.93 0 .93-1.66 0-2.01-.9-5.27-.9-3.29-1.71-4.09-.38-.38-.78-.38-.93 0-.93 1.66M40 4.95q-.8.82-2.06.82t-2.09-.82a2.8 2.8 0 0 1-.8-2.06q0-1.23.8-2.06A2.8 2.8 0 0 1 37.94 0Q39.2 0 40 .83q.83.83.83 2.06T40 4.95m-6.46 15.13q-.2 0-.2-.52 0-.54.2-.56l.85-.17q.3-.05.3-.35v-6.6q0-.18-.05-.23l-.25-.1-.85-.15q-.2-.03-.2-.48 0-.4.2-.48 2.91-1.12 6.31-3.46a.4.4 0 0 1 .2-.08q.16 0 .4.13t.25.25l-.05.78a61 61 0 0 0-.15 4.44v5.98q0 .3.3.35l.86.17q.2.02.2.56 0 .52-.2.52l-1.56-.1a47 47 0 0 0-5 0zM59.55 19q.2.02.2.56 0 .52-.2.52l-1.56-.1a47 47 0 0 0-4.93 0l-1.46.1q-.2 0-.2-.52 0-.48.2-.56l.68-.17.25-.1q.05-.08.05-.25v-4.95q0-1.76-.5-2.46-.48-.7-1.74-.7-.37 0-.55.07v8.04q0 .17.05.25.05.04.25.1l.68.17q.2.08.2.56 0 .52-.2.52l-1.46-.1a43 43 0 0 0-6.49.1q-.2 0-.2-.52 0-.54.2-.56l.86-.17q.3-.05.3-.35v-6.6q0-.18-.05-.23l-.25-.1-.86-.15q-.2-.03-.2-.48 0-.4.2-.48a30 30 0 0 0 6.04-3.46.3.3 0 0 1 .2-.08q.15 0 .4.13t.25.25l-.05.98q-.05.9-.05 1.76.56-1.23 1.74-2.09 1.2-.87 2.77-.88 1.98 0 3.12 1.13t1.15 3.17v7.13q0 .3.3.35zm13.79-2.36A5.7 5.7 0 0 1 71 19.23a7 7 0 0 1-3.95 1.08 6.3 6.3 0 0 1-4.65-1.8 6.4 6.4 0 0 1-1.82-4.73q0-2.98 2.2-4.84a8.2 8.2 0 0 1 5.55-1.89q2.27 0 3.62 1 1.36 1.02 1.36 2.34 0 .75-.52 1.26-.54.48-1.36.48-1.59 0-2.7-2.09-.67-1.27-1.05-1.66-.36-.4-.78-.4-.9 0-.9 1.33 0 1.65.75 3.6a9 9 0 0 0 1.88 3.03q.99.98 2.07.98.93 0 1.88-.8.18-.13.5.1.33.22.26.42M91.17 19q.2.02.2.56 0 .52-.2.52l-1.56-.1a47 47 0 0 0-4.93 0l-1.46.1q-.2 0-.2-.52 0-.47.2-.56l.68-.17.25-.1q.05-.08.05-.25v-4.95q0-1.76-.5-2.46-.48-.7-1.74-.7-.38 0-.55.07v8.04q0 .17.05.25.04.04.25.1l.68.17q.2.08.2.56 0 .52-.2.52l-1.46-.1a43 43 0 0 0-6.5.1q-.2 0-.2-.52 0-.54.2-.56l.86-.17q.3-.05.3-.35V5.55q0-.18-.05-.23l-.25-.1-.85-.15q-.2-.02-.2-.48 0-.4.2-.47 2.91-1.13 6.31-3.47a.4.4 0 0 1 .2-.07q.15 0 .4.12.26.13.26.25l-.05.78a62 62 0 0 0-.15 4.45v3.49q.63-1.11 1.76-1.86t2.56-.76q2 0 3.12 1.13 1.16 1.13 1.16 3.17v7.13q0 .3.3.35zm11.22 1.3q-2.26 0-3.17-3.18-.6 1.51-1.71 2.36-1.08.83-2.47.83-1.43 0-2.36-1-.9-1.04-.9-2.52 0-1.15.4-1.85.4-.73 1.38-1.26 1.61-.86 5.46-1.7v-.8q0-1.36-.4-2.14t-1.11-.78q-.35 0-.4.4l-.18 1.2a3.2 3.2 0 0 1-.9 2.01q-.74.66-1.82.66-.63 0-1.05-.38a1.3 1.3 0 0 1-.43-1.03q0-1.3 2.11-2.69a9 9 0 0 1 4.86-1.38q5.03 0 5.03 3.8v4.61q0 .6.05.98t.13.58q.1.2.22.25.15.05.3 0t.38-.2q.1-.07.15-.07.15 0 .38.3.23.27.23.4 0 .12-.25.37l-.1.1q-2.14 2.14-3.83 2.14m-3.82-3.38q.27 0 .45-.18v-1.78q0-.72-.53-1.25-.47-.48-.98-.48-.73 0-.73 1.05 0 1.03.55 1.84.58.8 1.24.8m17.76.22a5.1 5.1 0 0 1-4.73 3.16q-1.97 0-3-1.16a4.8 4.8 0 0 1-1.03-3.23V9.04q0-.18-.05-.23t-.25-.1l-.9-.12q-.2-.03-.2-.5 0-.54.2-.56 1.92-.46 3.19-1.18 1.25-.72 2.51-2.03.2-.2.58-.2.48 0 .5.2a30 30 0 0 1 .2 2.93h1.4l1.45-.02q.2 0 .28.18.07.14.07.62t-.07.63q-.08.13-.28.13-1.96 0-2.82-.03v4.97q0 1.66.4 2.29.44.62 1.31.62.18 0 .38-.07l.25-.08q.23 0 .45.25.23.23.16.4"/></svg>