<svg xmlns="http://www.w3.org/2000/svg" viewBox="0 0 20 20"><path fill="#fff" d="M11 2a9 9 0 0 1 7.2 14.4L20 20l-3.93-1.56A9 9 0 1 1 11 2m4.32 10.1a1.67 1.67 0 0 0-2.4 0l-.03.03c-.53.51-1.36.5-1.87-.03l-.03-.02a1.67 1.67 0 0 0-2.38.02 1.8 1.8 0 0 0 0 2.47 4.66 4.66 0 0 0 6.7 0c.67-.68.67-1.78 0-2.47m1.47-3.2a2.87 2.87 0 0 0-4.13 0 .76.76 0 0 0 0 1.06c.29.3.75.3 1.03 0l.03-.03a1.43 1.43 0 0 1 2.03.03l.02.02c.3.27.74.27 1.02-.02a.76.76 0 0 0 0-1.06m-5.62-.06a2.75 2.75 0 0 0-3.96 0 .76.76 0 0 0 0 1.06c.29.3.75.3 1.04 0l.02-.03c.52-.5 1.35-.5 1.87.03l.02.02a.7.7 0 0 0 1-.02.76.76 0 0 0 0-1.06"/></svg>